<?xml version="1.0" standalone="no"?>
<!DOCTYPE svg PUBLIC "-//W3C//DTD SVG 20010904//EN"
 "http://www.w3.org/TR/2001/REC-SVG-20010904/DTD/svg10.dtd">
<svg version="1.0" xmlns="http://www.w3.org/2000/svg"
 width="512.000000pt" height="512.000000pt" viewBox="0 0 512.000000 512.000000"
 preserveAspectRatio="xMidYMid meet">
<metadata>
Created by potrace 1.11, written by Peter Selinger 2001-2013
</metadata>
<g transform="translate(0.000000,512.000000) scale(0.100000,-0.100000)"
fill="#000000" stroke="none">
<path d="M1610 4960 c0 -6 14 -28 30 -48 119 -146 130 -163 130 -204 0 -34 -6
-46 -37 -76 -53 -49 -115 -75 -179 -73 -29 0 -56 -4 -59 -10 -4 -5 5 -27 19
-48 42 -60 36 -82 -39 -138 -40 -29 -120 -50 -220 -56 -51 -3 -53 -27 -5 -59
23 -16 38 -36 46 -63 18 -64 -4 -96 -95 -144 -42 -22 -93 -42 -113 -46 -58
-11 -79 -55 -26 -55 12 0 36 -11 55 -26 48 -36 45 -70 -9 -120 -40 -37 -65
-50 -160 -88 -21 -8 -38 -20 -38 -25 0 -6 21 -21 46 -32 63 -30 81 -59 63
-102 -13 -31 -69 -91 -124 -132 l-28 -21 49 -25 c71 -36 88 -75 79 -183 -9
-111 -13 -116 -65 -87 -58 32 -147 39 -179 13 -32 -26 -22 -48 29 -62 30 -8
40 -16 38 -28 -3 -12 -11 -16 -28 -14 -14 2 -59 4 -100 5 -80 2 -105 -9 -145
-61 -19 -26 -14 -46 17 -65 15 -10 22 -8 67 18 17 9 30 11 43 4 27 -15 23 -23
-36 -62 -63 -42 -76 -69 -50 -99 34 -37 51 -40 107 -22 29 9 62 24 75 32 25
16 119 19 134 4 20 -20 -4 -32 -60 -32 -58 0 -124 -18 -144 -38 -7 -7 -17 -12
-23 -12 -14 0 -105 -95 -130 -135 -13 -21 -19 -50 -19 -98 -1 -61 2 -71 23
-88 33 -27 59 -24 91 11 27 29 60 40 60 20 0 -5 9 -10 19 -10 19 0 71 53 71
72 0 35 85 108 125 108 21 0 19 -15 -7 -69 -30 -61 -29 -141 1 -205 26 -52 22
-81 -9 -71 -65 21 -154 -4 -187 -51 -27 -41 -42 -79 -35 -90 25 -34 39 -35
103 -4 63 29 88 28 76 -4 -3 -8 -32 -27 -63 -43 -76 -37 -108 -71 -129 -136
-16 -51 -16 -57 0 -86 13 -27 14 -38 5 -67 -15 -43 -5 -90 27 -133 35 -45 78
-61 168 -61 l76 0 44 45 c53 53 60 92 20 123 -39 31 -35 43 19 57 56 14 90 7
141 -31 17 -12 40 -25 51 -28 28 -9 58 -42 49 -55 -3 -6 -24 -11 -45 -11 -71
0 -161 -41 -240 -109 -95 -82 -112 -103 -139 -176 -13 -33 -30 -75 -37 -93
-16 -36 -19 -116 -5 -108 5 4 15 39 21 78 16 92 39 135 114 216 77 83 154 132
231 148 113 25 119 23 196 -58 38 -40 69 -80 69 -89 0 -9 13 -30 30 -47 16
-18 30 -36 30 -41 0 -5 9 -11 20 -14 28 -7 25 -27 -4 -27 -13 0 -30 10 -39 22
-13 20 -23 23 -78 22 -39 0 -77 -7 -97 -18 -48 -25 -136 -117 -161 -170 -26
-53 -57 -64 -48 -16 7 30 41 83 95 144 36 41 96 76 132 76 14 0 45 10 70 21
52 23 42 39 -26 39 -127 0 -294 -106 -329 -209 -6 -19 -8 -63 -4 -108 5 -69 9
-79 38 -105 43 -39 86 -38 109 2 18 32 49 40 58 15 11 -28 -7 -69 -48 -108
-22 -21 -37 -41 -33 -45 12 -12 79 35 97 69 29 54 24 96 -17 133 -19 18 -35
37 -35 43 0 18 96 111 138 132 32 16 63 21 149 23 l108 3 100 -72 c55 -40 151
-99 213 -130 61 -31 112 -61 112 -66 0 -5 -15 -26 -33 -47 -44 -52 -97 -155
-97 -190 0 -15 8 -38 18 -50 l17 -22 19 21 c22 25 44 27 52 6 9 -23 24 -18 24
8 0 47 -47 63 -72 25 -22 -33 -52 -18 -43 23 15 68 108 195 155 211 24 9 154
-47 158 -67 2 -9 -10 -31 -26 -49 -32 -33 -56 -75 -49 -82 2 -3 23 18 46 45
55 65 131 113 131 82 0 -6 -27 -38 -61 -73 -72 -75 -103 -129 -94 -166 5 -21
8 -23 16 -11 5 7 9 22 9 31 0 27 57 104 103 141 78 63 159 77 87 15 -103 -88
-152 -149 -175 -215 -17 -49 -39 -53 -61 -12 -14 28 -18 30 -26 15 -15 -27 34
-100 87 -132 55 -32 84 -27 120 21 33 42 29 66 -13 84 -37 17 -40 31 -12 49
30 18 92 -1 124 -39 19 -22 26 -42 26 -72 0 -78 -61 -142 -162 -171 -56 -16
-59 -16 -97 3 -21 11 -52 35 -68 54 -15 18 -45 44 -67 57 -21 12 -46 37 -57
53 -15 26 -19 28 -25 13 -9 -24 14 -65 47 -81 14 -8 46 -35 70 -61 60 -63 88
-73 174 -63 39 4 81 12 95 17 27 11 82 65 97 97 46 93 1 225 -76 225 -81 0
-79 27 6 81 76 48 179 74 251 64 28 -4 49 -2 58 6 12 10 20 8 44 -9 16 -12 33
-22 38 -22 4 0 27 -20 51 -44 35 -36 44 -52 43 -78 -1 -18 13 -71 30 -118 49
-134 66 -135 26 -2 -29 98 -16 110 47 43 26 -27 93 -82 150 -121 108 -75 141
-114 115 -130 -24 -15 -29 -13 -93 50 -63 61 -81 68 -101 38 -8 -14 -5 -23 18
-47 31 -33 31 -64 0 -69 -16 -2 -30 12 -63 63 -24 36 -45 64 -48 61 -7 -7 41
-106 68 -140 11 -14 28 -26 38 -26 24 0 61 41 61 68 0 30 10 28 61 -13 24 -19
49 -35 54 -35 6 0 22 14 37 32 l27 33 38 -21 c113 -64 393 -156 520 -170 43
-6 53 -4 53 8 0 21 -16 32 -74 51 -53 18 -133 66 -160 96 -22 24 -7 58 29 67
38 9 30 29 -22 59 -86 50 -98 69 -68 109 11 15 26 19 61 18 38 -2 45 0 42 15
-2 10 -24 28 -49 40 -50 23 -96 71 -105 109 -14 56 71 167 136 181 31 6 57 28
43 36 -4 2 -36 12 -71 23 -46 13 -62 22 -59 33 4 23 61 16 119 -16 46 -25 68
-27 53 -4 -15 26 -86 51 -140 51 -75 0 -95 12 -95 56 0 29 10 45 52 91 29 30
69 64 90 74 42 21 54 37 41 50 -6 6 -20 6 -37 -1 -23 -8 -34 -7 -62 11 -19 11
-34 29 -34 39 0 20 77 93 123 116 34 18 36 44 3 44 -31 0 -79 40 -100 84 -25
52 -20 90 14 130 18 20 26 37 20 41 -5 3 -10 14 -10 23 0 25 92 132 113 132
20 0 23 23 3 39 -10 9 -16 8 -26 -4 -7 -8 -38 -29 -69 -46 -60 -34 -101 -67
-101 -81 0 -5 13 -1 30 8 16 10 32 15 35 12 4 -4 -10 -40 -29 -81 -20 -41 -36
-88 -36 -106 0 -38 21 -91 43 -110 27 -22 21 -48 -14 -55 -17 -3 -47 -13 -67
-22 -20 -8 -53 -22 -72 -31 -19 -8 -48 -21 -63 -29 -16 -8 -35 -14 -44 -14 -8
0 -27 -6 -41 -14 -15 -7 -65 -32 -112 -53 -157 -73 -174 -77 -152 -28 7 15 8
25 2 25 -6 0 -10 9 -10 19 0 27 307 314 398 373 23 14 30 24 23 31 -8 8 -19 3
-39 -16 -15 -15 -32 -27 -38 -27 -20 0 -108 -72 -245 -202 -79 -75 -162 -149
-184 -165 -22 -16 -85 -43 -139 -62 -119 -39 -150 -37 -185 15 -13 19 -34 40
-46 47 -22 13 -139 136 -168 176 -31 46 -30 12 1 -36 25 -39 29 -49 16 -51
-26 -6 -42 6 -49 37 -3 16 -22 46 -40 66 -19 20 -39 53 -44 73 -35 133 -35
130 -15 159 15 22 19 46 19 111 0 81 1 85 30 108 55 44 65 35 65 -60 0 -47 5
-88 10 -91 6 -3 10 -5 10 -3 0 2 7 65 15 140 18 168 36 249 74 332 50 105 175
203 194 151 4 -8 1 -39 -5 -68 -10 -45 -9 -70 5 -140 18 -93 22 -171 8 -163
-12 8 -52 161 -46 177 7 19 -10 43 -25 34 -7 -4 -11 -31 -10 -68 2 -87 3 -85
-25 -79 -23 4 -25 1 -25 -31 0 -19 9 -64 20 -99 11 -34 20 -76 20 -92 0 -16
18 -67 41 -114 38 -79 44 -112 19 -112 -24 0 -88 159 -99 245 -5 42 -10 51
-28 53 -27 4 -30 -18 -9 -69 8 -19 19 -61 25 -94 7 -37 23 -77 41 -103 39 -55
41 -109 4 -95 -20 7 -82 139 -90 191 -8 49 -22 62 -39 38 -21 -27 7 -118 60
-202 35 -54 36 -59 19 -71 -10 -7 -21 -13 -26 -13 -4 0 -8 -7 -8 -15 0 -18 58
-85 74 -85 10 1 61 54 165 171 23 26 57 57 76 70 36 25 44 51 22 73 -7 7 -30
67 -51 132 -21 65 -44 134 -52 152 -19 45 -19 156 1 172 20 17 19 27 -5 33
-25 6 -26 29 -3 49 10 9 65 37 123 64 137 63 247 124 338 185 40 28 79 52 87
55 26 10 16 -22 -10 -34 -14 -6 -25 -16 -25 -22 0 -17 40 -11 47 8 4 9 16 27
27 39 12 12 29 32 39 43 24 28 55 25 69 -5 13 -30 40 -29 48 0 3 11 34 66 68
123 57 92 67 102 93 102 16 0 37 4 47 10 9 5 30 15 46 20 51 18 21 21 -95 9
-191 -19 -358 -7 -544 41 -87 22 -162 40 -167 40 -4 0 -8 -7 -8 -15 0 -10 26
-27 65 -45 70 -32 87 -60 36 -60 -16 0 -56 -7 -89 -15 -54 -14 -70 -14 -155
-1 -52 9 -121 23 -153 32 -83 23 -160 32 -385 43 -147 7 -205 13 -228 25 -48
25 -37 36 22 19 99 -28 97 -28 97 0 0 21 -10 30 -52 51 -88 42 -179 94 -199
112 -11 9 -35 46 -55 82 -54 95 -57 166 -14 287 45 128 46 135 22 135 -21 0
-95 -92 -200 -247 -43 -64 -69 -82 -57 -40 10 33 85 144 160 236 119 146 215
303 215 350 0 10 -14 31 -31 45 -36 30 -31 46 15 46 50 0 61 -19 46 -81 -9
-36 -9 -54 -2 -61 18 -18 38 7 88 103 25 48 67 116 93 151 61 80 197 210 237
226 17 8 36 24 42 36 13 30 47 36 186 35 159 -2 170 -5 176 -54 6 -51 19 -50
95 7 134 101 263 178 298 178 9 0 19 5 22 10 3 6 18 10 33 10 24 0 21 -4 -26
-32 -60 -34 -230 -191 -242 -223 -9 -22 5 -45 27 -45 8 0 41 25 73 56 33 31
64 54 69 53 6 -2 -7 -31 -30 -64 -22 -33 -59 -96 -81 -140 -47 -92 -158 -363
-158 -385 0 -8 -7 -28 -16 -45 -9 -16 -20 -46 -25 -65 -4 -19 -12 -53 -18 -75
-22 -93 -77 -215 -97 -215 -11 0 -4 20 26 77 29 55 45 103 56 163 32 188 123
439 195 542 23 32 24 58 3 58 -50 0 -254 -144 -254 -180 0 -17 27 -22 50 -10
28 15 38 5 21 -22 -38 -61 -68 -165 -126 -439 -31 -146 -31 -147 -66 -164 -32
-17 -48 -18 -67 -6 -10 6 -7 19 13 58 14 28 25 58 25 67 0 10 7 31 16 48 11
20 12 34 6 40 -16 16 -42 1 -42 -25 0 -27 -73 -101 -143 -145 -54 -34 -100
-89 -90 -106 18 -30 61 -67 88 -76 17 -5 82 -14 146 -19 142 -12 239 -36 431
-106 187 -68 238 -79 373 -79 90 0 127 5 205 27 52 15 120 27 151 27 67 0 150
23 172 48 10 11 18 37 18 63 1 24 8 57 17 73 9 20 12 44 8 73 -6 47 5 56 28
21 42 -69 18 -180 -56 -257 -41 -43 -171 -113 -263 -141 -23 -7 -116 -14 -219
-15 -175 -3 -214 -11 -189 -36 19 -19 147 -30 318 -27 94 1 184 -1 201 -5 27
-7 32 -5 37 12 3 14 13 21 30 21 13 0 30 7 37 15 7 8 18 15 25 15 24 0 103 69
134 119 24 36 34 65 37 108 8 82 10 88 30 72 23 -19 13 -137 -16 -184 -25 -41
-107 -115 -126 -115 -8 0 -14 -4 -14 -10 0 -42 123 39 157 104 23 43 43 117
43 157 0 108 -184 273 -340 305 -31 6 -75 23 -98 38 -40 25 -42 28 -42 76 0
27 8 71 19 97 58 148 89 333 97 578 l5 170 -28 55 c-33 64 -72 93 -161 120
l-65 20 -131 -30 c-72 -17 -149 -37 -171 -44 -48 -17 -205 -76 -293 -111 -103
-41 -136 -45 -339 -38 l-193 6 -47 44 c-27 25 -64 53 -83 64 -19 10 -53 30
-75 44 -44 27 -221 115 -233 115 -4 0 -19 6 -33 14 -15 7 -53 23 -85 34 -33
12 -95 35 -139 52 -108 42 -115 44 -115 30z m201 -140 c33 -22 63 -40 66 -40
3 0 18 -10 35 -21 29 -21 30 -24 23 -73 -12 -95 -26 -141 -49 -171 l-23 -29
-53 22 c-29 12 -65 22 -81 22 -44 0 -42 13 9 57 56 49 87 102 78 136 -3 14
-22 48 -41 77 -51 75 -49 76 36 20z m290 -81 c102 -44 262 -146 267 -171 2
-12 -10 -17 -55 -20 l-58 -5 -80 76 c-44 42 -106 92 -137 111 -56 34 -71 50
-45 50 6 0 55 -18 108 -41z m1519 -44 c63 -21 90 -36 90 -50 0 -6 5 -16 12
-23 18 -18 40 -134 28 -146 -6 -6 -12 -2 -16 10 -33 105 -84 162 -173 194 -33
13 -61 24 -61 26 0 10 80 2 120 -11z m-30 -107 c36 -19 50 -34 72 -79 14 -30
29 -82 33 -115 l6 -59 -30 35 c-17 19 -43 61 -58 93 -17 38 -44 74 -77 103
l-51 44 31 0 c16 0 50 -10 74 -22z m-1850 -98 c165 -58 232 -100 175 -108 -20
-3 -248 97 -269 118 -17 17 34 12 94 -10z m-54 -104 c-5 -43 -28 -79 -69 -110
-22 -16 -30 -18 -52 -8 -14 7 -51 12 -81 12 -46 0 -55 3 -52 17 2 9 23 27 48
40 61 32 103 79 96 108 -9 34 0 35 60 6 55 -26 55 -26 50 -65z m664 87 c-1
-16 -78 -62 -155 -92 -212 -85 -525 -310 -525 -377 0 -15 6 -24 15 -24 23 0
72 27 78 43 3 8 22 22 43 32 33 15 39 16 48 3 6 -8 21 -20 34 -27 12 -6 22
-19 22 -29 0 -28 -46 -118 -87 -169 -78 -99 -187 -223 -195 -223 -13 0 -10 7
18 37 14 15 33 41 41 56 8 16 41 65 73 109 67 91 79 127 56 163 -20 31 -44 31
-91 4 -33 -20 -37 -20 -54 -5 -9 9 -31 18 -47 21 -27 6 -35 -1 -99 -76 -38
-45 -77 -94 -85 -109 -23 -42 -72 -107 -111 -150 -43 -46 -51 -70 -34 -103 10
-19 10 -29 -1 -48 -11 -20 -14 -21 -19 -8 -8 21 -42 13 -56 -12 -6 -13 -6 -25
1 -38 8 -16 4 -29 -20 -65 -23 -33 -29 -51 -24 -70 4 -19 2 -26 -8 -26 -29 0
-51 -37 -45 -76 5 -30 3 -35 -10 -30 -24 10 -53 -3 -64 -27 -7 -16 -7 -10 -3
22 6 41 49 142 93 221 11 19 32 61 45 93 14 32 39 78 55 102 16 24 32 54 36
67 4 12 20 39 34 58 15 19 39 55 55 78 15 24 40 51 56 60 16 9 35 31 44 48 8
18 24 35 35 39 11 3 29 21 40 39 21 33 120 127 181 170 212 150 322 214 431
251 36 13 88 34 115 49 48 25 84 34 84 19z m1018 -76 c11 -12 31 -45 44 -72
20 -45 23 -69 26 -225 5 -216 -8 -357 -39 -425 -14 -33 -24 -44 -26 -33 -2 9
0 25 5 35 16 28 18 569 3 620 -6 24 -27 57 -46 76 -19 19 -32 37 -28 40 13 14
40 6 61 -16z m-1900 -143 c125 -28 172 -47 172 -66 0 -35 -42 -30 -160 17 -63
26 -119 51 -124 56 -15 14 36 11 112 -7z m1789 -129 c35 -62 45 -148 29 -229
-8 -37 -17 -70 -19 -72 -3 -3 -4 35 -4 83 1 112 -21 189 -68 239 -19 20 -32
41 -29 46 10 16 68 -27 91 -67z m-1867 11 c11 -25 20 -49 20 -55 0 -19 -74
-61 -107 -61 -39 0 -42 13 -10 35 29 19 47 56 47 95 0 45 26 37 50 -14z m2310
-33 c0 -40 -29 -161 -51 -208 -29 -66 -61 -175 -56 -189 14 -35 95 -76 200
-100 55 -13 105 -53 116 -93 10 -35 4 -64 -7 -33 -13 37 -79 87 -137 104 -125
37 -173 58 -205 91 -32 33 -33 34 -21 82 7 26 20 62 30 78 9 17 39 90 66 163
47 130 65 159 65 105z m-2290 -137 c0 -16 -39 -48 -50 -41 -4 2 -38 9 -76 15
-88 14 -106 19 -99 31 4 5 55 9 116 9 88 0 109 -3 109 -14z m1698 -142 c8 -48
-11 -210 -26 -226 -4 -4 -7 62 -7 147 0 125 2 152 13 141 7 -7 16 -35 20 -62z
m-1908 -14 c0 -29 -48 -76 -63 -61 -8 8 -2 20 23 46 19 19 35 35 37 35 2 0 3
-9 3 -20z m1768 4 c50 -35 67 -124 36 -189 -22 -48 -83 -115 -103 -115 -20 0
-41 -19 -41 -36 0 -6 15 -14 33 -17 17 -2 77 -20 132 -40 55 -19 121 -40 148
-46 26 -6 66 -15 90 -21 60 -14 313 -50 353 -50 37 0 43 -10 17 -31 -25 -21
-171 -16 -286 10 -54 12 -146 39 -205 62 -59 22 -135 48 -169 58 -34 10 -75
27 -90 37 -15 10 -41 25 -57 31 -24 11 -27 17 -22 41 4 15 10 43 15 62 4 19
24 80 45 135 20 55 39 106 41 113 6 17 36 15 63 -4z m-1502 -98 c7 -19 -14
-58 -29 -53 -17 5 -21 35 -7 52 16 19 29 19 36 1z m-268 -18 c-3 -21 -7 -23
-63 -20 -98 4 -95 25 5 35 19 2 41 5 48 5 8 1 12 -6 10 -20z m2052 -47 c0 -27
-15 -49 -26 -39 -7 8 8 68 17 68 5 0 9 -13 9 -29z m-2169 -37 c16 -27 20 -41
12 -52 -17 -28 -33 -25 -33 7 0 16 -4 33 -10 36 -13 8 -13 45 -1 45 5 0 19
-16 32 -36z m519 -67 c0 -8 -11 -24 -25 -37 -29 -27 -35 -9 -9 28 17 25 34 29
34 9z m-217 -90 c-7 -40 -7 -39 -27 -31 -21 8 -21 50 1 63 25 14 33 4 26 -32z
m-318 4 c7 -13 -17 -35 -54 -51 -46 -19 -51 -3 -11 31 35 30 55 36 65 20z
m-45 -90 c7 -14 7 -22 0 -26 -13 -8 -40 13 -40 31 0 21 28 17 40 -5z m2738 -9
c3 -18 -5 -26 -33 -38 -52 -21 -62 -8 -24 32 36 38 52 39 57 6z m-2485 -27
c16 -22 16 -26 2 -31 -20 -8 -45 13 -45 37 0 26 22 23 43 -6z m444 -66 c112
-85 109 -99 -8 -44 -45 21 -95 41 -113 44 -38 8 -47 37 -14 44 54 10 70 5 135
-44z m2083 21 c0 -5 -7 -10 -16 -10 -8 0 -12 5 -9 10 3 6 10 10 16 10 5 0 9
-4 9 -10z m-2099 -104 c75 -35 114 -69 106 -89 -4 -11 -18 -17 -37 -17 -20 0
-30 -5 -30 -15 0 -13 -4 -14 -20 -5 -11 6 -20 15 -20 20 0 6 9 10 20 10 23 0
27 29 8 48 -18 18 -108 14 -172 -8 -139 -48 -310 -168 -415 -293 -38 -45 -83
-95 -100 -111 -26 -25 -31 -27 -37 -13 -3 9 -2 29 4 45 5 16 7 90 4 172 -2 80
-1 142 3 138 5 -4 18 -25 31 -45 l22 -37 -20 -29 c-14 -20 -18 -36 -13 -55 9
-38 9 -53 0 -84 -4 -16 -3 -28 1 -28 10 0 78 65 204 195 47 48 100 93 118 101
18 8 37 25 43 37 12 26 62 57 92 57 12 0 36 9 52 20 38 25 83 21 156 -14z
m-587 -82 c13 -35 7 -56 -16 -52 -26 3 -35 32 -18 53 16 19 26 19 34 -1z
m-222 -24 c69 -30 71 -36 69 -168 -2 -122 -8 -138 -46 -124 -42 15 -139 7
-192 -15 -46 -20 -103 -31 -103 -19 0 2 -3 11 -6 19 -3 10 15 31 55 61 67 52
77 79 36 98 -20 9 -33 8 -64 -7 -61 -27 -86 4 -35 44 30 24 89 27 159 10 39
-10 47 -9 74 11 41 29 39 43 -9 65 -22 10 -40 24 -40 32 0 19 50 16 102 -7z
m1029 3 c8 -9 14 -25 14 -37 0 -27 79 -86 147 -110 107 -38 161 -45 340 -46
97 0 212 -5 255 -10 43 -6 98 -13 121 -16 24 -3 42 -8 39 -10 -14 -15 -222
-36 -352 -36 -191 -1 -246 12 -436 103 -145 69 -179 77 -179 39 0 -23 79 -76
140 -94 25 -7 84 -32 132 -55 53 -25 125 -49 185 -62 54 -11 99 -22 102 -24 8
-8 -25 -15 -89 -17 -58 -3 -65 -5 -68 -25 -2 -17 3 -24 20 -27 48 -10 156 -20
241 -21 48 -1 90 -5 94 -8 3 -4 -18 -32 -46 -63 -29 -31 -62 -74 -74 -95 -24
-42 -32 -47 -41 -24 -3 8 8 36 24 62 17 26 30 53 30 60 0 16 -58 27 -146 28
-80 0 -99 -10 -122 -64 -18 -46 -78 -139 -108 -171 -14 -16 -26 -44 -30 -72
-8 -54 8 -71 36 -40 11 11 28 23 39 27 10 3 22 12 25 20 3 8 22 23 44 34 21
11 44 27 51 35 8 9 20 16 28 16 23 0 14 -94 -9 -98 -13 -3 -18 3 -18 22 0 40
-18 30 -22 -11 -3 -35 -5 -38 -30 -35 -21 2 -27 -2 -30 -20 -2 -12 -14 -28
-28 -35 -39 -19 -136 -130 -171 -196 -38 -71 -59 -145 -59 -207 0 -89 43 -197
74 -187 7 2 11 43 11 108 1 120 20 181 82 263 55 72 234 212 259 202 28 -11
13 -41 -48 -98 -161 -150 -186 -175 -202 -206 -9 -18 -16 -43 -14 -54 2 -17 9
-11 36 31 34 52 59 64 82 37 9 -12 9 -33 0 -93 -7 -43 -15 -84 -20 -92 -14
-25 -25 10 -23 77 2 63 -12 84 -23 35 -3 -16 -10 -39 -14 -53 -11 -31 -11
-121 0 -135 4 -5 10 -44 14 -86 l7 -75 -37 -38 c-29 -30 -34 -40 -24 -51 7 -8
19 -15 26 -15 21 0 17 -16 -8 -32 -29 -20 -15 -41 24 -36 44 7 93 -13 93 -37
0 -17 8 -21 60 -25 53 -4 60 -8 65 -30 6 -24 9 -25 62 -22 56 4 57 3 60 -25 3
-26 6 -28 43 -25 45 4 88 30 93 57 2 10 -2 28 -9 41 -22 41 -1 39 57 -7 71
-56 94 -91 76 -119 -16 -27 -15 -57 3 -63 21 -9 -28 -80 -70 -103 -29 -15 -41
-16 -93 -7 -38 7 -84 8 -128 3 -40 -5 -75 -5 -85 1 -10 5 -33 9 -53 9 -19 0
-38 5 -41 10 -3 6 -21 10 -39 10 -19 0 -39 7 -46 15 -7 8 -19 15 -27 15 -7 0
-40 14 -73 30 -33 17 -65 30 -73 30 -17 0 -169 78 -254 131 -130 82 -231 169
-323 281 -19 23 -51 60 -71 83 -20 22 -45 56 -55 75 -11 19 -38 61 -62 92 -23
31 -42 60 -42 63 0 3 -18 28 -40 56 -21 27 -42 65 -46 84 -3 19 -10 35 -14 35
-4 0 -10 8 -14 18 -3 9 -11 25 -18 34 -28 39 11 29 130 -32 147 -76 197 -88
348 -89 163 -1 204 21 158 87 -28 40 -15 66 38 77 26 5 53 16 60 23 14 14 10
18 -39 48 -17 11 -17 13 6 38 l25 26 -37 31 c-20 17 -37 37 -37 44 0 20 20 29
33 16 6 -6 19 -11 29 -11 27 0 22 35 -7 54 -33 22 -32 44 3 48 28 3 34 22 17
60 -5 13 0 19 22 23 15 3 36 10 45 16 10 5 31 9 48 9 34 0 37 6 14 32 -16 17
-15 19 21 34 20 8 44 13 52 10 17 -7 73 20 73 34 0 6 -11 10 -23 10 -36 0 -63
34 -50 63 17 36 -1 59 -40 52 -21 -4 -39 -1 -52 9 -20 15 -20 15 3 55 12 22
22 43 22 47 0 3 -18 4 -40 0 -32 -5 -44 -2 -60 14 -16 16 -18 24 -9 44 17 35
5 56 -31 56 -23 0 -30 5 -30 19 0 10 7 24 15 31 8 7 18 30 21 50 9 52 57 77
85 43z m-240 -36 c29 -40 32 -65 9 -77 -11 -6 -20 -17 -20 -25 0 -7 -12 -42
-26 -77 -14 -35 -30 -72 -34 -83 -14 -32 -71 -193 -81 -228 -22 -71 -38 -190
-44 -332 -4 -82 -9 -153 -12 -157 -2 -4 -13 -2 -24 5 -17 10 -23 9 -40 -12
-11 -13 -21 -22 -22 -20 -29 42 -30 105 -2 224 8 33 22 92 30 130 23 102 59
190 145 365 102 204 105 215 92 245 -13 27 -42 34 -42 10 0 -8 5 -24 12 -34 9
-15 7 -24 -10 -46 -12 -15 -22 -32 -22 -37 0 -4 -11 -25 -23 -46 -110 -175
-205 -417 -231 -592 -3 -19 -10 -57 -16 -85 -6 -27 -7 -64 -4 -81 l6 -32 -37
16 -36 17 6 100 c13 198 64 352 173 523 78 123 89 155 47 139 -32 -13 -176
-265 -222 -390 -24 -65 -52 -216 -53 -279 0 -59 -8 -70 -30 -43 -10 12 -16 13
-27 3 -11 -9 -16 -9 -24 3 -5 8 -6 21 -3 29 3 8 12 44 20 80 46 200 94 328
157 418 24 33 28 45 19 54 -17 17 -50 -19 -98 -102 -48 -85 -77 -163 -104
-280 -31 -132 -28 -124 -44 -110 -11 8 -20 9 -35 0 -25 -13 -27 -3 -10 67 19
77 51 154 91 219 40 65 46 84 25 84 -17 0 -50 -36 -72 -78 -15 -31 -17 -33
-30 -16 -18 25 -34 10 -70 -63 -21 -42 -30 -53 -33 -39 -6 27 17 92 40 112 10
10 18 22 18 28 0 22 48 106 76 132 16 14 53 45 82 67 47 36 55 39 76 28 38
-21 56 -10 74 44 34 100 97 155 244 215 87 35 118 37 139 7z m82 -20 c3 -7 -1
-24 -9 -38 -13 -24 -13 -23 -14 14 0 36 13 50 23 24z m-23 -98 c0 -6 -7 -25
-15 -42 -25 -54 -66 -189 -76 -252 -19 -118 -27 -362 -14 -428 7 -34 15 -81
19 -104 6 -42 6 -43 -23 -43 -22 0 -30 -6 -35 -25 -9 -34 -17 -31 -43 15 -17
28 -23 55 -23 97 0 108 20 287 41 363 11 41 24 93 29 116 29 133 140 373 140
303z m58 -69 c4 -40 -11 -59 -33 -40 -18 15 -20 51 -3 68 19 19 33 9 36 -28z
m1559 -26 c16 -49 -239 -205 -507 -310 -51 -21 -88 -30 -93 -25 -6 6 -5 27 2
55 8 34 8 51 -1 71 -18 40 1 46 122 39 77 -4 120 -2 160 9 85 23 131 45 137
66 3 11 23 26 49 36 24 9 53 30 65 46 21 30 58 37 66 13z m-242 -4 c8 -12 -81
-12 -110 0 -14 6 -2 9 42 9 34 1 65 -3 68 -9z m-1340 -81 c0 -24 -5 -35 -18
-37 -23 -5 -32 23 -18 54 15 35 36 25 36 -17z m109 -7 c6 -22 6 -36 -2 -44
-27 -27 -77 37 -52 67 20 24 43 14 54 -23z m856 -17 c0 -2 -9 -9 -20 -15 -25
-13 -120 -2 -99 11 14 9 119 13 119 4z m-1790 -25 c14 -14 20 -33 20 -65 l0
-45 -48 0 c-71 0 -128 -47 -167 -137 -9 -22 -21 -33 -34 -33 -29 0 -27 28 4
64 30 35 28 50 -6 54 -34 4 -79 -41 -79 -79 0 -37 -26 -89 -45 -89 -21 0 -45
40 -45 74 0 39 31 102 76 155 53 62 126 97 229 110 33 5 63 9 68 10 4 0 16 -8
27 -19z m798 -22 c15 -15 15 -45 0 -54 -13 -8 -48 30 -48 52 0 17 32 18 48 2z
m230 -34 c11 -23 2 -64 -14 -64 -36 0 -58 52 -32 78 19 19 34 14 46 -14z
m-118 -19 c8 -10 9 -19 4 -24 -13 -13 -54 6 -54 24 0 20 34 19 50 0z m-106
-54 c14 -16 15 -19 2 -24 -13 -5 -46 21 -46 36 0 14 27 6 44 -12z m117 -31 c5
0 9 -9 9 -21 0 -15 -4 -19 -16 -15 -9 3 -20 6 -25 6 -5 0 -9 9 -9 21 0 15 4
19 16 15 9 -3 20 -6 25 -6z m-100 -45 c-1 -15 -24 -12 -29 3 -3 9 2 13 12 10
10 -1 17 -7 17 -13z m-1071 -21 c0 -8 -7 -14 -15 -14 -15 0 -21 21 -9 33 10 9
24 -2 24 -19z m330 -9 c0 -8 -4 -23 -9 -33 -5 -9 -17 -43 -26 -75 -16 -56 -36
-71 -43 -33 -4 17 33 102 49 112 5 3 9 14 9 25 0 10 5 19 10 19 6 0 10 -7 10
-15z m734 -31 c23 -9 20 -34 -3 -34 -22 0 -35 15 -26 30 7 12 8 12 29 4z m675
-68 c-25 -42 -45 -60 -59 -51 -19 11 -10 33 23 59 46 37 61 33 36 -8z m-739
-82 c0 -8 -5 -12 -10 -9 -6 4 -8 11 -5 16 9 14 15 11 15 -7z m40 -80 c0 -9 -5
-14 -12 -12 -18 6 -21 28 -4 28 9 0 16 -7 16 -16z m-788 -34 c14 -11 37 -24
51 -29 20 -8 29 -23 42 -68 9 -32 26 -78 37 -102 15 -34 18 -49 9 -67 -16 -35
6 -82 45 -94 41 -14 65 -40 37 -40 -10 0 -24 5 -31 12 -37 37 -215 -2 -227
-49 -3 -13 -12 -23 -20 -23 -22 0 -18 28 5 42 11 7 20 18 20 25 0 6 20 19 45
29 39 15 45 20 45 46 0 21 6 31 20 35 23 6 26 19 6 26 -8 3 -33 -7 -55 -24
-23 -16 -54 -29 -70 -29 -45 0 -121 -88 -121 -140 0 -53 40 -100 84 -100 35 0
76 24 76 45 0 18 15 26 34 19 27 -10 18 -38 -28 -83 l-44 -44 -74 11 c-64 10
-77 15 -105 46 -28 30 -33 43 -33 85 0 28 5 53 10 56 15 9 12 41 -6 56 -23 19
-12 81 21 125 16 21 52 47 90 66 105 49 118 81 51 118 -25 14 -30 13 -77 -13
-27 -15 -54 -25 -60 -22 -19 12 -8 44 26 74 33 28 42 31 104 31 53 0 74 -4 93
-20z m798 -50 c0 -5 -4 -10 -10 -10 -5 0 -10 5 -10 10 0 6 5 10 10 10 6 0 10
-4 10 -10z m904 -12 c3 -13 7 -39 10 -59 2 -20 16 -65 30 -101 27 -67 33 -108
16 -108 -27 0 -80 170 -80 256 0 38 17 46 24 12z m-1738 -294 c-10 -26 -49
-70 -73 -81 -27 -13 -28 -11 -8 27 24 46 97 95 81 54z m-40 -131 c18 -25 17
-33 -4 -33 -11 0 -24 11 -30 25 -10 21 -9 25 5 25 9 0 22 -8 29 -17z m2768
-150 c11 -11 -42 -51 -93 -69 -25 -9 -60 -23 -78 -30 -17 -8 -40 -14 -51 -14
-12 0 -24 -4 -27 -10 -3 -5 -14 -10 -24 -10 -10 0 -24 -7 -31 -15 -7 -8 -17
-12 -22 -9 -20 13 30 39 182 97 30 11 71 31 90 43 39 26 44 27 54 17z m-1073
-211 c14 -25 2 -46 -22 -37 -17 6 -89 130 -89 153 0 17 89 -76 111 -116z m983
66 c22 -44 20 -56 -8 -51 -13 3 -37 -2 -54 -11 -17 -9 -44 -16 -60 -16 -15 0
-37 -7 -48 -15 -10 -8 -33 -15 -50 -15 -18 0 -45 -7 -60 -15 -16 -8 -39 -15
-51 -15 -12 0 -24 -4 -27 -9 -3 -4 -24 -11 -46 -15 -23 -3 -50 -12 -60 -18
-16 -10 -23 -10 -36 4 -25 24 -7 41 66 63 34 10 63 22 66 27 3 4 15 8 28 8 12
0 31 7 42 15 10 8 31 15 46 15 15 0 30 5 33 10 3 6 16 10 29 10 12 0 31 7 42
15 10 8 29 15 40 15 12 0 35 7 50 15 39 20 40 20 58 -17z m-1200 13 c9 -14 -4
-41 -19 -41 -18 0 -28 17 -21 35 6 17 32 20 40 6z m-84 -27 c0 -20 -30 -30
-40 -13 -11 17 7 40 26 32 8 -3 14 -12 14 -19z m-1080 -21 c0 -3 -22 -30 -50
-59 -27 -29 -50 -59 -50 -66 -1 -7 -10 -24 -21 -37 -15 -19 -23 -21 -32 -12
-16 16 15 71 75 133 41 42 78 62 78 41z m198 -20 c18 -4 20 -8 10 -14 -7 -5
-21 -9 -32 -9 -21 0 -119 -58 -154 -90 -13 -12 -26 -20 -28 -17 -8 7 95 107
110 107 8 0 19 7 26 15 13 16 31 18 68 8z m2139 -63 c-20 -11 -45 -20 -55 -20
-10 0 -23 -5 -30 -12 -6 -6 -30 -15 -54 -19 -24 -4 -78 -18 -121 -30 -56 -15
-81 -19 -89 -11 -13 13 17 27 128 62 90 28 179 48 224 49 l35 1 -38 -20z
m-1039 -12 c-3 -25 -34 -36 -51 -19 -14 14 9 41 35 41 14 0 19 -6 16 -22z
m1033 -62 c-25 -27 -27 -73 -5 -105 14 -19 14 -25 3 -36 -12 -11 -27 -10 -89
7 -43 11 -90 17 -110 14 -41 -6 -274 9 -290 19 -17 11 9 35 38 35 13 0 30 7
37 16 10 14 15 14 34 4 45 -23 285 26 377 78 27 16 31 -4 5 -32z m-923 12 c-3
-7 -11 -13 -18 -13 -7 0 -15 6 -17 13 -3 7 4 12 17 12 13 0 20 -5 18 -12z
m366 -68 c-15 -15 -84 -25 -84 -12 0 12 22 19 65 21 20 1 26 -2 19 -9z m-1859
-83 c24 -18 11 -41 -16 -27 -10 6 -19 17 -19 25 0 19 11 19 35 2z m2230 -70
c11 -6 76 -12 145 -13 69 -2 126 -7 128 -12 1 -4 -16 -28 -38 -52 -44 -48 -60
-89 -52 -138 2 -18 2 -32 -1 -32 -3 0 -27 14 -52 31 -60 41 -312 169 -332 169
-11 0 -7 10 14 35 l28 34 70 -6 c39 -3 79 -10 90 -16z m-285 -177 c102 -69
310 -195 336 -204 28 -10 68 -45 60 -54 -11 -10 -248 117 -372 199 -69 46
-162 121 -168 137 -8 18 41 -9 144 -78z m-565 60 c-28 -12 -47 -12 -40 0 3 6
18 10 33 9 24 0 25 -1 7 -9z m667 -27 c80 -56 85 -58 184 -108 50 -25 100 -45
112 -45 11 0 23 -4 26 -9 3 -4 27 -14 53 -21 27 -7 52 -16 57 -21 4 -4 -4 -23
-19 -42 l-28 -35 -56 31 c-31 17 -81 45 -112 61 -112 61 -215 129 -256 169
-71 68 -49 79 39 20z m82 12 c16 -12 17 -15 4 -15 -8 0 -21 7 -28 15 -16 19
-1 19 24 0z m61 -35 c3 -5 -1 -10 -9 -10 -8 0 -18 5 -21 10 -3 6 1 10 9 10 8
0 18 -4 21 -10z m55 -30 c13 -8 13 -10 -2 -10 -9 0 -20 5 -23 10 -8 13 5 13
25 0z m61 -30 c19 -10 26 -30 12 -30 -5 0 -19 9 -33 20 -26 21 -12 27 21 10z
m-285 -86 c97 -67 336 -184 374 -184 10 0 22 -4 25 -10 3 -5 17 -10 30 -10 13
0 27 -4 30 -10 3 -5 15 -10 26 -10 20 0 27 -34 9 -45 -22 -14 -9 -54 30 -89
22 -20 35 -36 29 -36 -11 0 -145 44 -219 73 -107 40 -337 179 -410 247 -33 31
-33 50 1 50 16 0 18 5 13 25 -8 33 12 33 62 -1z m-815 -80 c11 -14 10 -20 -14
-40 -33 -29 -45 -30 -54 -6 -4 9 -14 22 -22 29 -9 6 -13 15 -9 19 4 4 15 1 23
-6 13 -11 19 -11 33 3 20 21 26 21 43 1z"/>
<path d="M1885 2374 c-26 -27 -15 -58 22 -62 44 -4 63 28 33 58 -24 24 -34 25
-55 4z"/>
<path d="M1860 2185 c-10 -12 -10 -18 0 -30 16 -19 50 -2 50 25 0 24 -32 27
-50 5z"/>
<path d="M1366 1862 c-4 -11 -18 -27 -31 -36 -31 -21 -32 -39 -1 -59 15 -10
26 -30 31 -54 4 -21 21 -54 41 -75 19 -21 34 -46 34 -56 0 -10 16 -33 34 -52
19 -18 36 -42 38 -54 2 -16 9 -20 27 -18 27 4 71 -33 71 -60 0 -13 8 -18 31
-18 43 0 122 -66 116 -98 -6 -31 75 -92 162 -121 36 -12 77 -31 92 -42 15 -10
30 -19 34 -19 8 0 63 -24 112 -48 56 -28 49 -4 -15 58 -34 32 -62 63 -62 69 0
22 23 21 65 -4 42 -24 46 -25 75 -10 39 20 53 47 36 70 -20 28 -65 12 -73 -25
-3 -17 -8 -30 -12 -30 -28 1 -154 166 -183 239 -5 14 -15 37 -20 51 -6 14 -12
41 -13 62 -4 51 -47 119 -94 148 -22 14 -41 32 -41 41 0 15 -4 15 -37 -2 -20
-10 -41 -23 -47 -29 -5 -5 -17 -10 -25 -10 -22 0 17 40 57 57 39 16 42 44 7
67 -14 9 -25 23 -25 30 0 17 -159 36 -209 25 -31 -7 -87 -1 -148 17 -15 4 -23
1 -27 -14z m292 -140 c2 -13 -6 -27 -22 -37 -45 -30 -65 11 -23 46 27 22 41
20 45 -9z m-128 -53 c0 -12 -7 -19 -19 -19 -27 0 -34 15 -15 34 19 19 34 12
34 -15z m78 -40 c4 -19 -27 -34 -41 -20 -14 14 0 43 20 39 10 -2 19 -10 21
-19z m178 -21 c-32 -22 -50 5 -18 28 14 10 18 10 23 -4 4 -9 1 -20 -5 -24z
m94 -68 c-26 -27 -33 -31 -41 -19 -7 10 1 23 28 47 48 43 58 20 13 -28z m-255
11 c6 -10 -21 -41 -35 -41 -16 0 -22 21 -10 35 14 17 36 20 45 6z"/>
<path d="M1790 1870 c0 -5 5 -10 10 -10 6 0 10 5 10 10 0 6 -4 10 -10 10 -5 0
-10 -4 -10 -10z"/>
<path d="M2401 1146 c-14 -16 -5 -42 16 -50 16 -7 63 18 63 32 0 29 -59 43
-79 18z"/>
<path d="M3890 4759 c0 -3 11 -27 25 -53 23 -44 25 -56 25 -199 0 -121 3 -148
13 -138 8 8 12 51 12 139 0 119 -2 130 -27 177 -31 57 -48 83 -48 74z"/>
<path d="M2570 4404 c-78 -21 -173 -78 -252 -153 -51 -47 -52 -89 -4 -137 30
-30 40 -34 86 -34 43 0 51 3 48 17 -2 10 -22 24 -46 33 -41 14 -71 47 -72 78
0 21 27 13 57 -17 44 -43 98 -49 162 -17 56 29 73 50 93 114 16 53 28 54 28 2
0 -22 3 -40 8 -40 25 1 52 45 52 86 0 15 7 32 17 39 9 7 14 19 10 29 -7 19
-43 22 -49 4 -4 -10 -10 -10 -32 0 -33 15 -37 14 -106 -4z m-26 -97 c9 -15 7
-21 -8 -33 -43 -32 -98 -6 -76 36 14 26 67 24 84 -3z"/>
<path d="M1080 4185 c0 -8 4 -15 10 -15 5 0 7 7 4 15 -4 8 -8 15 -10 15 -2 0
-4 -7 -4 -15z"/>
<path d="M2262 4078 c-7 -7 -12 -22 -12 -34 0 -16 8 -23 31 -28 75 -15 89 1
41 47 -31 30 -42 33 -60 15z"/>
<path d="M2228 3635 c-21 -14 -50 -43 -64 -65 -24 -36 -25 -43 -14 -70 15 -37
125 -145 147 -145 28 0 39 30 23 61 -14 25 -13 28 8 42 12 8 22 22 22 32 0 19
-24 81 -36 93 -4 4 -8 22 -8 40 -1 41 -27 45 -78 12z"/>
<path d="M630 3125 c-23 -24 -23 -26 -7 -43 16 -15 20 -15 45 -2 18 11 27 24
27 40 0 35 -34 38 -65 5z"/>
<path d="M3194 2581 c-18 -16 -86 -61 -153 -101 -67 -40 -121 -77 -121 -82 0
-4 11 -13 24 -18 55 -20 116 -141 116 -229 0 -122 62 -269 87 -205 3 8 35 29
72 46 89 42 203 126 199 147 -2 10 -12 15 -23 13 -77 -13 -112 -20 -128 -27
-13 -5 -28 0 -49 15 -26 19 -34 21 -50 11 -23 -14 -38 -6 -38 20 0 27 16 55
35 63 9 3 50 -8 91 -25 43 -16 85 -27 95 -24 29 9 49 34 49 59 0 31 -36 111
-72 161 -77 108 -98 146 -88 165 25 47 0 53 -46 11z"/>
<path d="M567 2280 c-35 -28 -43 -57 -21 -81 24 -27 66 -24 98 7 32 33 33 44
3 72 -29 27 -47 28 -80 2z m58 -35 c0 -25 -31 -43 -46 -28 -10 10 -8 17 6 33
21 24 40 21 40 -5z"/>
<path d="M515 2020 c20 -22 31 -20 22 5 -4 8 -14 15 -23 15 -16 0 -16 -2 1
-20z"/>
<path d="M2412 1811 c2 -25 9 -46 16 -49 17 -5 15 37 -3 68 -15 24 -15 24 -13
-19z"/>
<path d="M3680 1789 c0 -12 -7 -30 -16 -40 -34 -38 17 -104 74 -97 25 4 25 5
7 13 -11 4 -30 17 -42 28 -18 16 -20 23 -11 43 6 13 15 24 20 24 17 0 3 45
-14 48 -13 3 -18 -3 -18 -19z"/>
<path d="M2292 1769 c1 -12 9 -24 16 -27 9 -3 13 3 10 19 -1 12 -9 24 -16 27
-9 3 -13 -3 -10 -19z"/>
<path d="M2322 1701 c2 -19 9 -36 16 -39 17 -5 15 30 -3 54 -14 18 -15 17 -13
-15z"/>
<path d="M2356 1625 c4 -8 10 -15 15 -15 4 0 6 7 3 15 -4 8 -10 15 -15 15 -4
0 -6 -7 -3 -15z"/>
<path d="M665 1410 c3 -5 11 -10 16 -10 6 0 7 5 4 10 -3 6 -11 10 -16 10 -6 0
-7 -4 -4 -10z"/>
<path d="M3831 1194 c0 -11 3 -14 6 -6 3 7 2 16 -1 19 -3 4 -6 -2 -5 -13z"/>
<path d="M1441 1140 c-18 -4 -37 -14 -42 -22 -5 -7 -9 -61 -9 -120 l0 -107
-54 -58 c-30 -32 -71 -67 -92 -79 -28 -14 -40 -27 -42 -46 -2 -16 -24 -47 -54
-77 l-51 -51 -91 -1 c-85 -1 -89 -1 -61 -14 45 -21 154 -19 187 3 37 25 77 71
94 109 8 18 31 44 52 57 50 32 118 105 131 139 6 16 11 68 11 117 0 67 4 92
16 104 23 23 59 30 95 17 42 -14 42 -14 19 9 -25 25 -63 32 -109 20z"/>
<path d="M802 1080 c0 -14 2 -19 5 -12 2 6 2 18 0 25 -3 6 -5 1 -5 -13z"/>
<path d="M1630 1056 c0 -2 8 -10 18 -17 15 -13 16 -12 3 4 -13 16 -21 21 -21
13z"/>
<path d="M912 1007 c-12 -13 -22 -26 -22 -29 0 -3 14 -22 30 -43 18 -23 30
-50 30 -67 0 -38 24 -32 28 7 2 17 -5 39 -17 56 -22 30 -28 59 -11 59 5 0 28
-25 50 -55 22 -30 46 -55 54 -55 26 0 26 14 -1 41 -16 14 -43 45 -61 68 -38
47 -50 50 -80 18z"/>
<path d="M1700 1006 c0 -3 9 -10 20 -16 11 -6 20 -8 20 -6 0 3 -9 10 -20 16
-11 6 -20 8 -20 6z"/>
<path d="M1757 964 c3 -7 9 -14 14 -14 14 0 10 17 -5 23 -10 4 -13 1 -9 -9z"/>
<path d="M835 941 c12 -39 46 -91 66 -102 27 -14 23 2 -11 41 -16 19 -29 40
-30 46 0 6 -7 18 -16 25 -15 12 -16 11 -9 -10z"/>
<path d="M980 785 c-19 -20 -22 -30 -14 -43 16 -25 57 -26 79 -2 16 18 17 23
5 45 -17 32 -40 32 -70 0z m50 -25 c0 -5 -4 -10 -9 -10 -6 0 -13 5 -16 10 -3
6 1 10 9 10 9 0 16 -4 16 -10z"/>
<path d="M2112 740 c0 -14 2 -19 5 -12 2 6 2 18 0 25 -3 6 -5 1 -5 -13z"/>
<path d="M1982 697 c-7 -9 -12 -28 -10 -44 l3 -28 13 23 c7 13 12 33 10 44 -3
19 -4 20 -16 5z"/>
<path d="M2600 571 c0 -121 -1 -130 -26 -167 -39 -59 -104 -123 -147 -145 -42
-22 -147 -38 -252 -39 -55 0 -66 -3 -51 -11 23 -14 245 -6 298 10 53 17 156
115 184 176 20 42 24 66 24 157 0 97 2 107 20 113 11 3 30 -1 45 -11 14 -9 25
-12 25 -5 0 13 -76 51 -102 51 -16 0 -18 -11 -18 -129z"/>
<path d="M1851 644 c-36 -30 -38 -44 -13 -67 25 -23 45 -21 71 7 26 27 22 59
-9 76 -14 8 -25 4 -49 -16z m53 -22 c9 -14 -12 -35 -28 -29 -23 9 -20 37 3 37
11 0 22 -4 25 -8z"/>
<path d="M3858 608 c0 -29 0 -60 1 -68 1 -8 3 -39 4 -68 2 -41 7 -56 21 -64
17 -10 18 -8 12 13 -3 13 -9 70 -13 127 -7 110 -22 148 -25 60z"/>
<path d="M1804 413 c4 -4 27 -12 52 -19 43 -11 44 -10 28 7 -11 12 -31 19 -52
19 -20 0 -32 -3 -28 -7z"/>
<path d="M1930 356 c0 -3 15 -15 33 -27 l32 -23 -24 27 c-22 24 -41 35 -41 23z"/>
<path d="M3106 287 c-34 -27 -31 -51 9 -69 56 -25 102 35 57 75 -24 22 -31 21
-66 -6z m54 -32 c0 -8 -9 -15 -20 -15 -11 0 -20 7 -20 15 0 8 9 15 20 15 11 0
20 -7 20 -15z"/>
<path d="M4056 208 c0 -71 -1 -73 -40 -117 l-41 -44 -110 6 c-60 3 -126 10
-145 16 -19 5 -64 17 -100 26 -36 9 -72 20 -80 25 -9 4 -30 11 -48 14 -17 4
-34 12 -37 17 -4 5 -16 9 -28 9 -12 0 -31 7 -41 15 -30 23 -50 18 -70 -16 -10
-16 -36 -43 -58 -60 -38 -27 -48 -29 -127 -29 -91 -1 -95 -14 -8 -26 87 -12
134 2 189 57 31 31 58 49 73 49 13 0 59 -14 102 -30 135 -53 267 -82 395 -87
l118 -5 40 40 c38 38 40 42 40 103 0 66 -8 109 -19 109 -3 0 -6 -33 -5 -72z"/>
<path d="M2995 110 c10 -11 20 -20 23 -20 3 0 -3 9 -13 20 -10 11 -20 20 -23
20 -3 0 3 -9 13 -20z"/>
</g>
</svg>
